<?xml version="1.0" encoding="UTF-8"?>
<!DOCTYPE svg PUBLIC "-//W3C//DTD SVG 1.1//EN" "http://www.w3.org/Graphics/SVG/1.1/DTD/svg11.dtd">
<!-- Creator: CorelDRAW 2017 -->
<svg xmlns="http://www.w3.org/2000/svg" xml:space="preserve" width="32.0097mm" height="11.9947mm" version="1.1" style="shape-rendering:geometricPrecision; text-rendering:geometricPrecision; image-rendering:optimizeQuality; fill-rule:evenodd; clip-rule:evenodd"
viewBox="0 0 556.71 208.61"
 xmlns:xlink="http://www.w3.org/1999/xlink">
 <defs>
  <style type="text/css">
   <![CDATA[
    .fil1 {fill:black}
    .fil0 {fill:black;fill-rule:nonzero}
   ]]>
  </style>
 </defs>
 <g id="Camada_x0020_1">
  <metadata id="CorelCorpID_0Corel-Layer"/>
  <g id="_1969415447008">
   <path class="fil0" d="M33.4 92.78l44.07 0 0 -2.32 -11.98 0 0 -86.08 5.28 0c16.75,0 21,11.73 22.94,25.9l2.32 0 0 -28.22 -81.18 0 0 28.22 2.32 0c1.93,-14.17 6.19,-25.9 22.94,-25.9l5.28 0 0 86.08 -11.98 0 0 2.32zm67.52 -45.36c-0.51,24.1 18.17,47.42 40.98,47.42 22.81,0 41.49,-23.32 40.98,-47.42 0,-25.25 -16.62,-47.42 -40.98,-47.42 -24.35,0 -40.98,22.16 -40.98,47.42zm40.98 45.1c-15.08,0 -19.33,-12.37 -19.33,-45.1 0,-40.72 9.41,-45.1 19.33,-45.1 9.92,0 19.33,4.38 19.33,45.1 0,32.73 -4.25,45.1 -19.33,45.1zm48.58 0.26l24.35 0 0 -2.32 -1.16 0c-7.22,0 -10.05,-1.29 -10.05,-8.63l0 -65.85 0.26 0 60.05 78.35 5.41 0 0 -82.98c0,-3.22 2.45,-6.96 8.25,-6.96l1.81 0 0 -2.32 -24.35 0 0 2.32 2.45 0c5.67,0 8.76,2.45 8.76,7.34l0 52.83 -0.26 0 -48.58 -62.49 -26.54 0 0 2.32 3.99 0 5.67 7.6 0 69.2c0,7.86 -3.74,9.28 -7.73,9.28l-1.42 0 -0.9 0 0 2.32zm130.27 0l75.64 0 0 -30.93 -2.32 0 0 2.58c0,14.95 -5.15,26.03 -27.96,26.03l-14.82 0 0 -86.08 11.6 0 0 -2.32 -42.14 0 0 2.32 10.44 0 0 86.08 -10.44 0 0 2.32zm84.53 -88.4l10.05 0 0 58.37c0,19.97 13.79,32.08 34.79,32.08 23.71,0 34.02,-12.5 34.02,-31.44l0 -48.19c0,-7.47 2.06,-10.82 6.7,-10.82l3.35 0 0 -2.32 -25.51 0 0 2.32 3.74 0c6.57,0 8.63,3.35 8.63,10.82l0 48.97c0,17.52 -10.57,26.03 -23.07,26.03 -18.81,0 -22.55,-12.63 -22.55,-29.12l0 -56.7 10.44 0 0 -2.32 -40.59 0 0 2.32zm95.61 88.4l40.98 0 0 -2.32 -10.44 0 0 -86.08 10.44 0 0 -2.32 -40.98 0 0 2.32 10.44 0 0 86.08 -10.44 0 0 2.32z"/>
   <path class="fil0" d="M77.92 207.55l21.12 0 0 -1.2 -5.38 0 0 -22.85 17.27 0 0 22.85 -5.38 0 0 1.2 21.12 0 0 -1.2 -5.38 0 0 -44.37 5.38 0 0 -1.19 -21.12 0 0 1.19 5.38 0 0 20.33 -17.27 0 0 -20.33 5.38 0 0 -1.19 -21.12 0 0 1.19 5.38 0 0 44.37 -5.38 0 0 1.2zm50.95 0l12.02 0 0 -1.2 -1.86 0c-1.33,0 -3.19,-0.26 -3.19,-2.46 0,-0.73 0.26,-1.46 0.46,-1.99l3.19 -9.37 12.89 0 4.85 13.82 -5.31 0 0 1.2 19.79 0 0 -1.2 -3.25 0 -17.8 -46.63 -0.99 0 -15.41 42.65c-0.8,2.19 -1.99,3.78 -4.52,3.98l-0.86 0 0 1.2zm11.16 -16.21l5.91 -16.8 0.13 0 5.78 16.8 -11.82 0zm34.81 16.21l21.12 0 0 -1.2 -5.38 0 0 -44.37 5.38 0 0 -1.19 -21.12 0 0 1.19 5.38 0 0 44.37 -5.38 0 0 1.2zm41.05 -45.57l4.85 0c5.65,0 8.24,0.8 8.24,9.03 0.2,8.3 -1.73,11.23 -9.37,11.62l-3.72 0 0 -20.66zm-15.74 45.57l21.32 0 0 -1.2 -5.58 0 0 -22.52 3.52 0c6.84,0.13 9.43,1.73 9.43,12.42 0,7.3 1.73,12.35 8.83,12.35 2.53,0 5.78,-0.53 8.1,-2.26l-0.47 -0.99c-0.73,0.46 -1.73,0.86 -2.39,0.86 -2.66,0 -3.59,-1 -3.72,-11.42 -0.13,-7.11 -4.91,-10.89 -14.68,-11.76l0 -0.13c6.71,-0.46 15.61,-3.12 15.61,-11.16 0,-9.76 -11.82,-10.96 -19.13,-10.96l-20.86 0 0 1.19 5.38 0 0 44.37 -5.38 0 0 1.2zm68.62 0l1.19 0c0,-1.2 0.66,-2.39 2.46,-2.39 2.66,0 8.1,3.45 13.88,3.45 9.36,0 15.21,-6.37 15.21,-16.73 0,-19.73 -26.9,-9.62 -26.9,-22.45 0,-5.13 3.79,-8.51 8.84,-8.51 8.37,0 12.09,7.72 13.75,14.77l1.2 0 0 -14.9 -1.2 0c0,0.79 -0.13,2.52 -2.13,2.52 -2.99,0 -5.11,-3.59 -11.82,-3.59 -8.77,0 -14.61,5.51 -14.61,14.29 0,19.99 26.5,9.58 26.5,24.05 0,5.84 -3.85,9.35 -9.56,9.35 -8.97,0 -14.02,-9.95 -15.61,-17.46l-1.19 0 0 17.59zm47.43 0l22.72 0 0 -1.2 -6.18 0 0 -44.37 2.73 0c8.63,0 10.83,6.05 11.82,13.35l1.2 0 0 -14.55 -41.85 0 0 14.55 1.2 0c0.99,-7.31 3.19,-13.35 11.82,-13.35l2.73 0 0 44.37 -6.18 0 0 1.2zm46.36 0l20.59 0 0 -1.2 -5.11 0 0 -17.87 9.04 -20.26c2.06,-4.98 3.59,-6.24 5.85,-6.24l0.46 0 0 -1.19 -11.96 0 0 1.19 0.86 0c2.99,0 3.98,0.86 3.98,2.59 0,1.13 -0.53,2.66 -1.33,4.58l-7.9 17.93 -10.96 -25.11 4.78 0 0 -1.19 -20.46 0 0 1.19 4.39 0 12.89 29.29 0 15.08 -5.11 0 0 1.2zm33.28 0l38.99 0 0 -15.94 -1.19 0 0 1.33c0,7.7 -2.66,13.42 -14.42,13.42l-7.64 0 0 -44.37 5.98 0 0 -1.19 -21.72 0 0 1.19 5.38 0 0 44.37 -5.38 0 0 1.2zm43.98 0l38.99 0 0 -14.94 -1.19 0 0 0.93c0,3.79 -1.59,12.82 -12.49,12.82l-9.57 0 0 -22.85 4.58 0c4.32,0 6.58,4.05 6.58,8.77l0 1.53 1.2 0 0 -20.99 -1.2 0 0 0.73c0,6.31 -2.26,8.77 -6.58,8.77l-4.58 0 0 -20.33 7.84 0c7.9,0 12.36,5.05 12.36,11.09l0 0.93 1.19 0 0 -13.22 -37.13 0 0 1.19 5.38 0 0 44.37 -5.38 0 0 1.2z"/>
   <polygon class="fil1" points="-0,122.93 556.71,122.93 556.71,131.63 -0,131.63 "/>
  </g>
 </g>
</svg>
